HIERARCHY
ROOT Hips
{
	OFFSET 0.00000 0.00000 0.00000
	CHANNELS 6 Xposition Yposition Zposition Zrotation Yrotation Xrotation 
	JOINT LHipJoint
	{
		OFFSET 0 0 0
		CHANNELS 3 Zrotation Yrotation Xrotation
		JOINT LeftHip
		{
			OFFSET 1.38280 -1.96574 0.54427
			CHANNELS 3 Zrotation Yrotation Xrotation
			JOINT LeftKnee
			{
				OFFSET 2.72096 -7.47578 0.00000
				CHANNELS 3 Zrotation Yrotation Xrotation
				JOINT LeftAnkle
				{
					OFFSET 2.73041 -7.50176 0.00000
					CHANNELS 3 Zrotation Yrotation Xrotation
					JOINT LeftToe
					{
						OFFSET 0.16150 -0.44371 2.18031
						CHANNELS 3 Zrotation Yrotation Xrotation
						End Site
						{
							OFFSET 0.00000 -0.00000 1.12127
						}
					}
				}
			}
		}
	}
	JOINT RHipJoint
	{
		OFFSET 0 0 0
		CHANNELS 3 Zrotation Yrotation Xrotation
		JOINT RightHip
		{
			OFFSET -1.57224 -1.96575 0.54427
			CHANNELS 3 Zrotation Yrotation Xrotation
			JOINT RightKnee
			{
				OFFSET -2.95935 -8.13076 0.00000
				CHANNELS 3 Zrotation Yrotation Xrotation
				JOINT RightAnkle
				{
					OFFSET -2.52345 -6.93311 0.00000
					CHANNELS 3 Zrotation Yrotation Xrotation
					JOINT RightToe
					{
						OFFSET -0.04475 -0.10171 1.86688
						CHANNELS 3 Zrotation Yrotation Xrotation
						End Site
						{
							OFFSET -0.00000 -0.00000 0.95157
						}
					}
				}
			}
		}
	}
	JOINT lowerback
	{
		OFFSET 0 0 0
		CHANNELS 3 Zrotation Yrotation Xrotation
		JOINT Chest
		{
			OFFSET 0.00669 2.07367 0.09104
			CHANNELS 3 Zrotation Yrotation Xrotation
			JOINT Chest2
			{
				OFFSET -0.00664 2.06198 -0.04732
				CHANNELS 3 Zrotation Yrotation Xrotation
				JOINT lowerneck
				{
					OFFSET 0 0 0
					CHANNELS 3 Zrotation Yrotation Xrotation
					JOINT Neck
					{
						OFFSET -0.00021 1.49948 0.16345
						CHANNELS 3 Zrotation Yrotation Xrotation
						JOINT Head
						{
							OFFSET 0.06080 1.50567 -0.26702
							CHANNELS 3 Zrotation Yrotation Xrotation
							End Site
							{
								OFFSET 0.01726 1.56470 -0.11854
							}
						}
					}
				}
				JOINT LeftCollar
				{
					OFFSET 0 0 0
					CHANNELS 3 Zrotation Yrotation Xrotation
					JOINT LeftShoulder
					{
						OFFSET 3.14993 0.82932 -0.22488
CHANNELS 3 Zrotation Xrotation Yrotation
						JOINT LeftElbow
						{
OFFSET 0 -5.682360 -0.000000
CHANNELS 3 Zrotation Xrotation Yrotation
							JOINT LeftWrist
							{
OFFSET 0 -3.171120 0.000000
CHANNELS 3 Zrotation Xrotation Yrotation
								JOINT lhand
								{
									OFFSET 0 0 0
CHANNELS 3 Zrotation Xrotation Yrotation
									JOINT LFingers
									{
OFFSET 0 -0.632690 0.000000
CHANNELS 3 Zrotation Xrotation Yrotation
										End Site
										{
OFFSET 0 -0.510090 0.000000
										}
									}
								}
								JOINT LThumb
								{
OFFSET 0 0.000000 0.000000
CHANNELS 3 Zrotation Xrotation Yrotation
									End Site
									{
OFFSET 0 -0.517880 0.517880
									}
								}
							}
						}
					}
				}
				JOINT RightCollar
				{
					OFFSET 0 0 0
					CHANNELS 3 Zrotation Yrotation Xrotation
					JOINT RightShoulder
					{
						OFFSET -3.10571 0.91279 -0.33334
CHANNELS 3 Zrotation Xrotation Yrotation
						JOINT RightElbow
						{
OFFSET 0 -5.871200 -0.000000
CHANNELS 3 Zrotation Xrotation Yrotation
							JOINT RightWrist
							{
OFFSET 0 -3.375890 0.000000
CHANNELS 3 Zrotation Xrotation Yrotation
								JOINT rhand
								{
									OFFSET 0 0 0
CHANNELS 3 Zrotation Xrotation Yrotation
									JOINT RFingers
									{
OFFSET 0 -0.603260 0.000000
CHANNELS 3 Zrotation Xrotation Yrotation
										End Site
										{
OFFSET 0 -0.486360 0.000000
										}
									}
								}
								JOINT RThumb
								{
OFFSET 0 0.000000 0.000000
CHANNELS 3 Zrotation Xrotation Yrotation
									End Site
									{
OFFSET 0 -0.493790 0.493790
									}
								}
							}
						}
					}
				}
			}
		}
	}
}
MOTION
Frames: 9
Frame Time: 0.008333333333333333
10.970900 18.453600 -0.604400 -165.865000 -84.221000 176.005000 0.000000 0.000000 0.000000 -21.673300 -5.777600 -16.457900 2.200100 9.270900 26.646500 1.616300 -4.115000 -23.061700 0.187000 -2.785100 -7.681100 0.000000 0.000000 0.000000 16.821300 13.016600 -13.656500 -2.258100 -9.384200 27.004800 0.348800 10.540500 2.053100 -5.148000 -13.548600 41.458300 -1.338000 0.912700 -11.397100 0.634500 1.329300 0.102700 1.643900 0.588400 6.463300 -4.024700 -0.736500 -18.278300 2.720100 -0.760900 23.053700 1.521200 -0.459100 10.434400 0.000000 -0.000000 0.000000 -0.988500 -2.106200 -13.813000 14.029800 -22.777300 2.839600 13.597900 -4.551000 -30.291600 0.000000 0.000000 0.000000 -7.125000 0.000000 0.000000 -20.374900 59.814400 7.556800 0.000000 -0.000000 0.000000 -2.335400 3.881200 4.309900 -15.126200 -24.321700 -3.277800 -20.102400 9.978900 -28.608000 0.000000 0.000000 0.000000 7.125000 0.000000 -0.000000 6.135000 -0.015200 6.172100
10.875651 18.367708 -0.374863 -161.676518 -83.140785 170.816003 0.000000 0.000000 0.000000 -21.839131 -4.985176 -16.106377 2.497301 9.833003 28.437684 1.853271 -5.388888 -24.587986 0.221199 -3.027776 -8.356107 0.000000 0.000000 0.000000 16.446093 13.452680 -19.396547 -4.454757 -12.741649 38.409729 0.265556 9.159767 2.173224 -4.897280 -13.267200 40.377106 -1.620606 0.544587 -10.407449 0.654062 0.871761 0.450062 1.735738 0.358428 6.284399 -3.964029 -0.241183 -18.311505 2.587969 -0.045521 22.997177 1.564365 -0.142113 10.391786 0.000000 0.000000 0.000000 -1.401794 -4.121030 -41.503455 18.677952 -29.015958 4.873927 16.226521 -8.512054 -31.013700 0.000000 0.000000 0.000000 -7.125000 0.000000 0.000000 -18.123071 61.117697 7.250329 0.000000 0.000000 0.000000 -0.947944 1.318345 8.203624 -15.564632 -24.926743 -3.460445 -20.991209 8.105003 -29.942520 0.000000 0.000000 0.000000 7.125000 0.000000 0.000000 5.782888 -1.549905 5.967418
10.575360 18.359488 -0.258186 -160.908982 -82.956017 169.757150 0.000000 0.000000 0.000000 -22.464458 -5.264826 -14.000276 2.363802 9.585989 27.646109 2.054779 -4.408576 -26.087848 0.313448 -3.598986 -9.951141 0.000000 0.000000 0.000000 15.542856 15.496587 -27.069324 -5.491058 -13.916162 42.902916 0.064850 6.383926 -2.484152 -5.165123 -13.567325 41.531190 -2.102446 -0.296313 -9.383049 1.328131 -0.245076 0.814083 2.541304 -0.217512 6.140776 -3.365481 0.744221 -18.249650 1.322624 1.514600 21.991216 1.221996 0.496629 9.977882 0.000000 0.000000 0.000000 2.271471 -5.787717 -53.085247 23.318862 -34.435599 7.317776 13.903376 -9.585323 -30.016432 0.000000 0.000000 0.000000 -7.125000 0.000000 0.000000 -19.845459 59.627946 7.261851 0.000000 0.000000 0.000000 0.025362 -1.217943 10.071368 -17.190428 -27.108069 -4.173786 -24.781696 3.791184 -32.392825 0.000000 0.000000 0.000000 7.125000 0.000000 0.000000 3.997047 -4.889921 4.333334
10.018585 18.390714 -0.211759 -160.780356 -82.749794 170.009923 0.000000 0.000000 0.000000 -23.085031 -4.512456 -10.771938 1.842524 8.529905 24.335626 2.136667 -3.547996 -26.778474 0.317091 -3.618923 -10.007036 0.000000 0.000000 0.000000 14.578236 17.781168 -31.432233 -2.956384 -10.622828 31.019451 -0.048189 2.456223 -4.010222 -5.217824 -13.624983 41.755466 -1.206946 -0.205225 -8.010076 1.339725 -0.234564 0.773343 2.045050 -0.174462 5.313748 -2.977515 0.951135 -16.938717 2.257736 1.438419 20.586038 1.445090 0.624704 9.233438 0.000000 0.000000 0.000000 5.081709 -8.185518 -50.025995 18.287496 -28.523684 4.685710 16.423237 -7.515550 -34.433749 0.000000 0.000000 0.000000 -7.125000 0.000000 0.000000 -20.931089 64.361743 10.025249 0.000000 0.000000 0.000000 -0.969101 -0.980244 7.675346 -17.413536 -27.399688 -4.275914 -23.587927 3.899170 -31.895384 0.000000 0.000000 0.000000 7.125000 0.000000 0.000000 4.584840 -4.101839 4.916284
9.153407 18.369567 -0.300926 -161.568746 -83.587163 170.941083 0.000000 0.000000 0.000000 -23.773181 -3.261548 -5.875190 1.275906 7.158660 20.186359 2.084805 -2.979041 -26.552312 0.330623 -3.695339 -10.221106 0.000000 0.000000 0.000000 13.679434 18.818038 -31.855201 -0.958596 -6.233841 17.464629 -0.009131 -2.634814 -4.292219 -5.249929 -13.659829 41.891646 -0.738673 0.018715 -7.089555 1.658724 -0.002462 1.104446 2.139371 -0.052285 5.128390 -3.249823 0.646211 -17.761054 2.278395 1.070122 22.107686 1.475257 0.409807 9.930974 0.000000 0.000000 0.000000 9.780797 -5.217818 -50.766922 19.321831 -29.816639 5.189916 15.033142 -9.065664 -35.688634 0.000000 0.000000 0.000000 -7.125000 0.000000 0.000000 -23.812471 65.116289 11.891552 0.000000 0.000000 0.000000 -3.982315 0.029715 0.079601 -14.044052 -22.797625 -2.845214 -25.782812 7.435470 -33.337385 0.000000 0.000000 0.000000 7.125000 0.000000 0.000000 3.607835 -6.105850 3.978578
7.865556 18.219971 -0.602587 -168.610200 -85.531802 178.473509 0.000000 0.000000 0.000000 -24.127345 -2.444377 -1.027970 1.110496 6.695177 18.815367 1.938097 -4.368110 -25.309776 0.580139 -4.877420 -13.559265 0.000000 0.000000 0.000000 13.365588 18.820327 -31.305645 -0.910291 -6.079731 17.015916 0.071478 -4.990675 -3.500345 -5.364753 -13.783149 42.375612 -0.929232 -0.210604 -7.299967 2.071227 -0.318636 1.246145 2.642696 -0.226605 5.414434 -3.226448 0.502780 -18.103522 1.716028 1.030941 21.986612 1.270543 0.334461 9.958890 0.000000 0.000000 0.000000 7.638739 -0.669991 -36.946771 17.083223 -26.967328 4.125065 17.316177 -6.202630 -34.056721 0.000000 0.000000 0.000000 -7.125000 0.000000 0.000000 -19.551658 64.255886 9.290017 0.000000 0.000000 0.000000 -4.387790 3.471971 -4.092912 -14.629388 -23.627289 -3.075867 -27.281388 5.106718 -32.348537 0.000000 0.000000 0.000000 7.125000 0.000000 0.000000 2.594331 -5.462372 2.832269
6.174708 18.247307 -1.122215 -168.247970 -86.322092 178.157638 0.000000 0.000000 0.000000 -21.502137 0.378158 1.495083 1.610326 8.002226 22.720825 0.900821 -5.259531 -16.940769 1.192809 -6.930189 -19.508617 0.000000 0.000000 0.000000 15.986772 17.799738 -30.460042 -1.985407 -8.835601 25.282350 0.107603 -6.364630 0.452757 -5.876885 -14.308004 44.485674 0.570972 0.040972 -7.200728 2.432156 -0.152904 1.385308 2.193321 -0.109182 5.492251 -2.840030 0.561941 -18.809977 0.799930 1.295658 21.037387 0.919994 0.408748 9.757703 0.000000 0.000000 0.000000 4.192510 3.912153 -26.133062 14.822037 -23.897575 3.153514 17.568354 -3.477389 -34.029527 0.000000 0.000000 0.000000 -7.125000 0.000000 0.000000 -19.240044 64.299034 9.155988 0.000000 0.000000 0.000000 -3.546966 4.185112 -8.042138 -13.143895 -21.497637 -2.505773 -25.692557 8.631271 -32.491321 0.000000 0.000000 0.000000 7.125000 0.000000 0.000000 3.505701 -5.211209 3.816423
4.552652 18.346688 -1.689168 -106.814765 -88.732305 117.258905 0.000000 0.000000 0.000000 -15.681618 1.230364 -12.688055 7.063176 15.382290 49.108315 0.003389 2.545951 -3.856654 1.787367 -8.407723 -23.959818 0.000000 0.000000 0.000000 19.555458 15.573271 -26.616796 -2.558960 -9.944262 28.796502 0.005290 1.677915 1.765707 -5.978338 -14.407310 44.894675 2.371870 0.199240 -7.539616 3.075310 -0.171894 1.185886 1.849093 -0.081550 5.476987 -2.538090 0.481427 -19.336880 -0.431758 1.407437 22.315897 0.460035 0.307271 10.328121 0.000000 0.000000 0.000000 1.953087 5.489457 -27.733928 16.397150 -26.056062 3.818834 13.634513 -4.554729 -33.665956 0.000000 0.000000 0.000000 -7.125000 0.000000 0.000000 -23.244196 62.922288 10.406454 0.000000 0.000000 0.000000 -4.151939 2.056120 -4.134545 -13.212574 -21.597861 -2.531051 -22.667949 10.288369 -30.889828 0.000000 0.000000 0.000000 7.125000 0.000000 0.000000 4.952061 -2.867045 5.212640
3.225771 18.350463 -2.084650 -33.485170 -89.095453 43.834754 0.000000 0.000000 0.000000 -15.184163 -4.651276 -28.814253 9.824172 17.309431 58.898668 0.578466 4.998571 -17.052397 1.698933 -8.208531 -23.349394 0.000000 0.000000 0.000000 21.178015 14.623764 -22.379516 -2.907204 -10.543226 30.754447 0.193989 7.825612 1.992277 -5.930521 -14.360645 44.702100 2.569187 1.262364 -6.936699 2.535802 1.280894 1.595101 1.345296 0.657561 5.557079 -2.742943 0.334353 -18.949301 -0.036846 1.121545 23.738261 0.595599 0.172412 10.773214 0.000000 0.000000 0.000000 1.560719 2.684458 -32.657538 20.990721 -31.817300 6.045125 17.357306 -5.438644 -31.589161 0.000000 0.000000 0.000000 -7.125000 0.000000 0.000000 -17.338316 61.943887 7.265288 0.000000 0.000000 0.000000 -7.106766 -4.720844 5.263433 -14.152009 -22.951626 -2.887148 -23.795521 8.266258 -30.072156 0.000000 0.000000 0.000000 7.125000 0.000000 0.000000 4.184707 -2.270260 4.358667
